<svg width="320" height="320" viewBox="0 0 320 320" fill="none" xmlns="http://www.w3.org/2000/svg">
<path fill-rule="evenodd" clip-rule="evenodd" d="M320 0H0V320H320V0ZM73.0582 96.8341L37.0251 95.8369L22.7969 139.627L52.5343 160L22.7969 180.373L37.0251 224.163L73.0582 223.166L60.975 257.127L98.225 284.191L126.79 262.205L136.977 296.782H183.02L193.207 262.205L221.772 284.191L259.022 257.127L246.939 223.166L282.972 224.163L297.2 180.373L267.463 160L297.2 139.627L282.972 95.8369L246.939 96.8341L259.022 62.8727L221.772 35.809L193.207 57.7954L183.02 23.2178H136.977L126.79 57.7954L98.225 35.809L60.975 62.8727L73.0582 96.8341Z" fill="#3C2157"/>
</svg>
