<svg width="120" height="28" viewBox="0 0 120 28" fill="none" xmlns="http://www.w3.org/2000/svg">
<g clip-path="url(#clip0_177_4611)">
<path d="M6.5426 15.0275L3.45704 23.2557L4.74449 24.5431L12.9726 21.4576L11.4192 19.9041L6.10217 21.898L8.09605 16.581L6.5426 15.0275Z" fill="white"/>
<path d="M21.4579 12.9725L24.5434 4.74435L23.256 3.45689L15.0278 6.54245L16.5813 8.0959L21.8983 6.10202L19.9044 11.419L21.4579 12.9725Z" fill="white"/>
<path d="M12.9726 6.54244L4.74449 3.45688L3.45704 4.74433L6.5426 12.9725L8.09605 11.419L6.10217 6.10201L11.4192 8.09589L12.9726 6.54244Z" fill="white"/>
<path d="M15.0278 21.4578L23.256 24.5433L24.5434 23.2559L21.4579 15.0277L19.9044 16.5812L21.8983 21.8982L16.5813 19.9043L15.0278 21.4578Z" fill="white"/>
<path d="M33.84 11H36.272V12.936H34V19H31.28V12.936H30V11H31.28V10.264C31.28 9.30397 31.5787 8.58397 32.176 8.10397C32.7733 7.62397 33.552 7.38397 34.512 7.38397C35.344 7.38397 35.9573 7.53864 36.352 7.84797L36.08 9.54397C35.8453 9.37331 35.5413 9.28797 35.168 9.28797C34.2827 9.28797 33.84 9.67197 33.84 10.44V11Z" fill="white"/>
<path d="M45.0246 11V19H42.5926L42.5126 17.512C42.2673 18.0666 41.91 18.4826 41.4406 18.76C40.9713 19.0266 40.406 19.16 39.7446 19.16C38.8913 19.16 38.2193 18.936 37.7286 18.488C37.2486 18.0293 37.0086 17.3146 37.0086 16.344V11H39.7286V15.656C39.7286 16.1786 39.8193 16.5466 40.0006 16.76C40.182 16.9733 40.4593 17.08 40.8326 17.08C41.2806 17.08 41.638 16.9306 41.9046 16.632C42.1713 16.3226 42.3046 15.8586 42.3046 15.24V11H45.0246Z" fill="white"/>
<path d="M52.4665 18.552C52.1998 18.7333 51.8585 18.8826 51.4425 19C51.0372 19.1066 50.6265 19.16 50.2105 19.16C49.2612 19.16 48.5358 18.9573 48.0345 18.552C47.5332 18.1466 47.2772 17.496 47.2665 16.6V12.936H45.8905V11H47.2665V9.20797L49.9865 8.45597V11H52.3865V12.936H49.9865V16.152C49.9865 16.8666 50.3385 17.224 51.0425 17.224C51.4798 17.224 51.8638 17.1066 52.1945 16.872L52.4665 18.552Z" fill="white"/>
<path d="M61.2596 11V19H58.8276L58.7476 17.512C58.5023 18.0666 58.145 18.4826 57.6756 18.76C57.2063 19.0266 56.641 19.16 55.9796 19.16C55.1263 19.16 54.4543 18.936 53.9636 18.488C53.4836 18.0293 53.2436 17.3146 53.2436 16.344V11H55.9636V15.656C55.9636 16.1786 56.0543 16.5466 56.2356 16.76C56.417 16.9733 56.6943 17.08 57.0676 17.08C57.5156 17.08 57.873 16.9306 58.1396 16.632C58.4063 16.3226 58.5396 15.8586 58.5396 15.24V11H61.2596Z" fill="white"/>
<path d="M67.8375 10.84C68.2002 10.84 68.4882 10.8986 68.7015 11.016L68.4135 13.32C68.3068 13.256 68.1628 13.2026 67.9815 13.16C67.8002 13.1066 67.6082 13.08 67.4055 13.08C66.8935 13.08 66.4668 13.2453 66.1255 13.576C65.7842 13.896 65.6135 14.36 65.6135 14.968V19H62.8935V11H65.2935L65.4055 12.712C65.8322 11.464 66.6428 10.84 67.8375 10.84Z" fill="white"/>
<path d="M77.1468 14.888C77.1468 15.2506 77.1201 15.5493 77.0667 15.784H71.6107C71.6961 16.2853 71.8774 16.6533 72.1548 16.888C72.4428 17.1226 72.8214 17.24 73.2907 17.24C73.6854 17.24 74.0054 17.1653 74.2508 17.016C74.5068 16.8666 74.6774 16.648 74.7627 16.36L76.9707 17.064C76.7467 17.7466 76.3094 18.2693 75.6587 18.632C75.0187 18.984 74.2294 19.16 73.2907 19.16C71.8934 19.16 70.8214 18.7973 70.0747 18.072C69.3387 17.3466 68.9707 16.3226 68.9707 15C68.9707 13.6773 69.3334 12.6533 70.0588 11.928C70.7841 11.2026 71.8134 10.84 73.1468 10.84C74.4374 10.84 75.4241 11.1973 76.1068 11.912C76.8001 12.616 77.1468 13.608 77.1468 14.888ZM73.1307 12.744C72.6934 12.744 72.3468 12.872 72.0908 13.128C71.8454 13.384 71.6854 13.7786 71.6107 14.312H74.6188C74.4694 13.2666 73.9734 12.744 73.1307 12.744Z" fill="white"/>
<path d="M83.4832 10.84C84.5286 10.84 85.3392 11.2026 85.9152 11.928C86.4912 12.6533 86.7793 13.6666 86.7793 14.968C86.7793 16.2906 86.4859 17.32 85.8993 18.056C85.3126 18.792 84.5072 19.16 83.4832 19.16C82.9286 19.16 82.4432 19.032 82.0272 18.776C81.6219 18.5093 81.3019 18.1413 81.0672 17.672V22.36H78.3473V11H80.7313L80.8112 12.696C81.0352 12.1306 81.3766 11.6826 81.8353 11.352C82.2939 11.0106 82.8432 10.84 83.4832 10.84ZM82.5392 17.16C83.0192 17.16 83.3872 16.984 83.6432 16.632C83.9099 16.28 84.0433 15.736 84.0433 15C84.0433 14.264 83.9099 13.72 83.6432 13.368C83.3872 13.016 83.0192 12.84 82.5392 12.84C82.0806 12.84 81.7179 13.016 81.4513 13.368C81.1953 13.72 81.0672 14.2373 81.0672 14.92V15.08C81.0672 15.7413 81.1953 16.2533 81.4513 16.616C81.7073 16.9786 82.0699 17.16 82.5392 17.16Z" fill="white"/>
<path d="M93.0181 10.84C93.3808 10.84 93.6688 10.8986 93.8821 11.016L93.5941 13.32C93.4875 13.256 93.3435 13.2026 93.1621 13.16C92.9808 13.1066 92.7888 13.08 92.5861 13.08C92.0741 13.08 91.6475 13.2453 91.3061 13.576C90.9648 13.896 90.7941 14.36 90.7941 14.968V19H88.0741V11H90.4741L90.5861 12.712C91.0128 11.464 91.8235 10.84 93.0181 10.84Z" fill="white"/>
<path d="M98.3754 10.84C99.7087 10.84 100.743 11.208 101.479 11.944C102.226 12.6693 102.599 13.688 102.599 15C102.599 16.312 102.226 17.336 101.479 18.072C100.743 18.7973 99.7087 19.16 98.3754 19.16C97.042 19.16 96.002 18.7973 95.2554 18.072C94.5194 17.336 94.1514 16.312 94.1514 15C94.1514 13.688 94.5194 12.6693 95.2554 11.944C96.002 11.208 97.042 10.84 98.3754 10.84ZM98.3754 12.776C97.8634 12.776 97.4847 12.952 97.2394 13.304C96.994 13.656 96.8714 14.2213 96.8714 15C96.8714 15.7786 96.994 16.344 97.2394 16.696C97.4847 17.048 97.8634 17.224 98.3754 17.224C98.8874 17.224 99.266 17.048 99.5114 16.696C99.7567 16.344 99.8794 15.7786 99.8794 15C99.8794 14.2213 99.7567 13.656 99.5114 13.304C99.266 12.952 98.8874 12.776 98.3754 12.776Z" fill="white"/>
<path d="M107.68 10.84C109.014 10.84 110.048 11.208 110.784 11.944C111.531 12.6693 111.904 13.688 111.904 15C111.904 16.312 111.531 17.336 110.784 18.072C110.048 18.7973 109.014 19.16 107.68 19.16C106.347 19.16 105.307 18.7973 104.56 18.072C103.824 17.336 103.456 16.312 103.456 15C103.456 13.688 103.824 12.6693 104.56 11.944C105.307 11.208 106.347 10.84 107.68 10.84ZM107.68 12.776C107.168 12.776 106.79 12.952 106.544 13.304C106.299 13.656 106.176 14.2213 106.176 15C106.176 15.7786 106.299 16.344 106.544 16.696C106.79 17.048 107.168 17.224 107.68 17.224C108.192 17.224 108.571 17.048 108.816 16.696C109.062 16.344 109.184 15.7786 109.184 15C109.184 14.2213 109.062 13.656 108.816 13.304C108.571 12.952 108.192 12.776 107.68 12.776Z" fill="white"/>
<path d="M116.187 11H118.619V12.936H116.347V19H113.627V12.936H112.347V11H113.627V10.264C113.627 9.30397 113.926 8.58397 114.523 8.10397C115.12 7.62397 115.899 7.38397 116.859 7.38397C117.691 7.38397 118.304 7.53864 118.699 7.84797L118.427 9.54397C118.192 9.37331 117.888 9.28797 117.515 9.28797C116.63 9.28797 116.187 9.67197 116.187 10.44V11Z" fill="white"/>
</g>
<defs>
<clipPath id="clip0_177_4611">
<rect width="120" height="28" fill="white"/>
</clipPath>
</defs>
</svg>
